# File created by Blade
# Date/Time:  Wed Sep 24 20:15:16 2014
# Frame Rate: 120.000 fps
#------------------------------------------------------
:FULLY-SPECIFIED
:DEGREES
3964
root -6.007641 32.688979 -4.000148 16.775123 -5.649417 -3.074250
Spine -22.039887 -3.900118 4.605049
Head 12.538541 11.317329 6.985328
LeftShoulder -8.604525 20.432624 10.033509
LeftArm 19.979381 23.630853 -76.628068
LeftForeArm -3.991562 -0.000000 19.423553
LeftHand -22.551267 -0.000000 -3.127986
LeftHandThumb1 -26.253704 0.000000 33.147579
RightShoulder -24.748462 10.980041 -13.353570
RightArm -41.808832 54.391596 51.703687
RightForeArm 49.988287 -0.000000 126.515515
RightHand -2.435439 -0.000000 -39.742568
RightHandThumb1 -24.326973 -0.000000 -32.862282
LeftUpLeg -9.856675 11.715433 3.770077
LeftLeg -0.026417 -0.000000 0.000000
LeftFoot -15.534033 10.330962 -18.946815
LeftToeBase 9.353604 -0.000000 -0.000000
RightUpLeg -13.368969 -1.640894 -1.620509
RightLeg 3.083928 -0.000000 -0.000000
RightFoot -9.849594 0.544017 -12.761341
RightToeBase -1.060033 -0.000000 0.000000
3965
root -6.008465 32.689284 -4.000459 16.757119 -5.660934 -3.072922
Spine -22.063037 -3.900759 4.606454
Head 12.557497 11.357994 7.021109
LeftShoulder -8.561888 20.412888 10.059152
LeftArm 19.980162 23.638768 -76.643165
LeftForeArm -4.010991 0.000000 19.415699
LeftHand -22.495535 -0.000000 -3.133711
LeftHandThumb1 -26.253704 0.000000 33.147579
RightShoulder -24.769935 10.940975 -13.410205
RightArm -41.745486 54.483407 51.774434
RightForeArm 51.203690 0.000000 127.348696
RightHand -1.331637 0.000000 -36.364675
RightHandThumb1 -24.326973 -0.000000 -32.862282
LeftUpLeg -9.831106 11.715122 3.773873
LeftLeg -0.038839 -0.000000 0.000000
LeftFoot -15.519394 10.349735 -18.938219
LeftToeBase 9.317096 -0.000000 -0.000000
RightUpLeg -13.352565 -1.647864 -1.620911
RightLeg 3.081050 -0.000000 -0.000000
RightFoot -9.850200 0.574432 -12.750058
RightToeBase -1.014395 -0.000000 0.000000
3966
root -6.008601 32.689104 -3.999880 16.735009 -5.674954 -3.071800
Spine -22.079149 -3.901357 4.620026
Head 12.557533 11.405167 7.027448
LeftShoulder -8.542726 20.396407 10.067560
LeftArm 19.989081 23.647687 -76.653604
LeftForeArm -4.025028 -0.000000 19.417660
LeftHand -22.517365 -0.000000 -3.091123
LeftHandThumb1 -26.253704 0.000000 33.147579
RightShoulder -24.794833 10.971434 -13.514805
RightArm -41.718556 54.459332 51.830897
RightForeArm 52.377651 -0.000000 128.212842
RightHand 0.020156 0.000000 -32.292260
RightHandThumb1 -24.326973 -0.000000 -32.862282
LeftUpLeg -9.802912 11.728930 3.775303
LeftLeg -0.042118 -0.000000 0.000000
LeftFoot -15.506252 10.320194 -19.060557
LeftToeBase 9.228719 -0.000000 -0.000000
RightUpLeg -13.325204 -1.650572 -1.622937
RightLeg 3.068634 -0.000000 -0.000000
RightFoot -9.845995 0.591184 -12.753286
RightToeBase -1.060258 -0.000000 0.000000
3967
root -6.009001 32.689246 -4.000132 16.721474 -5.681602 -3.069896
Spine -22.108946 -3.894506 4.628724
Head 12.557813 11.451285 7.053309
LeftShoulder -8.497973 20.384982 10.095316
LeftArm 20.002435 23.673857 -76.667304
LeftForeArm -4.071132 -0.000000 19.415292
LeftHand -22.439358 -0.000000 -3.115512
LeftHandThumb1 -26.253704 0.000000 33.147579
RightShoulder -24.836279 10.797894 -13.543745
RightArm -41.453774 54.612412 52.055546
RightForeArm 53.975306 -0.000000 129.176733
RightHand 1.450927 -0.000000 -27.682244
RightHandThumb1 -24.326973 -0.000000 -32.862282
LeftUpLeg -9.782387 11.727747 3.773950
LeftLeg -0.057443 -0.000000 0.000000
LeftFoot -15.511416 10.350311 -18.930117
LeftToeBase 9.314849 -0.000000 -0.000000
RightUpLeg -13.308202 -1.653365 -1.623416
RightLeg 3.057548 -0.000000 -0.000000
RightFoot -9.851341 0.588882 -12.779019
RightToeBase -1.018877 -0.000000 0.000000
3968
root -6.010071 32.689785 -4.000258 16.701044 -5.688575 -3.073892
Spine -22.129978 -3.886406 4.646460
Head 12.548732 11.490283 7.058275
LeftShoulder -8.449717 20.352573 10.116782
LeftArm 19.993749 23.696879 -76.683260
LeftForeArm -4.101440 -0.000000 19.421652
LeftHand -22.486731 -0.000000 -3.130570
LeftHandThumb1 -26.253704 0.000000 33.147579
RightShoulder -24.853403 10.721009 -13.657554
RightArm -41.380064 54.723003 52.116032
RightForeArm 55.520805 -0.000000 130.131211
RightHand 3.128966 -0.000000 -22.525558
RightHandThumb1 -24.326973 -0.000000 -32.862282
LeftUpLeg -9.749833 11.720701 3.784822
LeftLeg -0.075156 -0.000000 0.000000
LeftFoot -15.518361 10.358692 -18.966783
LeftToeBase 9.374612 -0.000000 -0.000000
RightUpLeg -13.277310 -1.619903 -1.628223
RightLeg 3.034496 -0.000000 -0.000000
RightFoot -9.826978 0.585709 -12.746290
RightToeBase -1.040996 -0.000000 0.000000
3969
root -6.010817 32.689914 -4.000773 16.676073 -5.690627 -3.068596
Spine -22.146522 -3.866573 4.640167
Head 12.540904 11.504615 7.092968
LeftShoulder -8.382450 20.330120 10.160359
LeftArm 20.002242 23.709167 -76.706025
LeftForeArm -4.106868 -0.000000 19.420871
LeftHand -22.539756 -0.000000 -3.146574
LeftHandThumb1 -26.253704 0.000000 33.147579
RightShoulder -24.903482 10.608058 -13.719410
RightArm -41.140719 54.825956 52.236052
RightForeArm 56.870908 -0.000000 131.215063
RightHand 4.835519 -0.000000 -17.467760
RightHandThumb1 -24.326973 -0.000000 -32.862282
LeftUpLeg -9.721394 11.721219 3.789371
LeftLeg -0.083778 -0.000000 0.000000
LeftFoot -15.487487 10.325079 -19.080275
LeftToeBase 9.275336 -0.000000 -0.000000
RightUpLeg -13.251048 -1.617964 -1.633306
RightLeg 3.029262 -0.000000 -0.000000
RightFoot -9.821932 0.580115 -12.753159
RightToeBase -1.053093 -0.000000 0.000000
3970
root -6.010780 32.690524 -4.001389 16.662548 -5.688652 -3.058344
Spine -22.171657 -3.855670 4.643290
Head 12.512590 11.556585 7.108649
LeftShoulder -8.346181 20.322181 10.178262
LeftArm 20.028870 23.724990 -76.709360
LeftForeArm -4.101781 -0.000000 19.423875
LeftHand -22.524194 -0.000000 -3.274109
LeftHandThumb1 -26.253704 0.000000 33.147579
RightShoulder -24.918390 10.529654 -13.843607
RightArm -41.170073 55.063269 52.068736
RightForeArm 57.989823 0.000000 132.380414
RightHand 6.024266 -0.000000 -12.509600
RightHandThumb1 -24.326973 -0.000000 -32.862282
LeftUpLeg -9.708113 11.725288 3.777665
LeftLeg -0.092723 -0.000000 0.000000
LeftFoot -15.475970 10.355352 -18.938414
LeftToeBase 9.366309 -0.000000 -0.000000
RightUpLeg -13.236366 -1.618204 -1.644372
RightLeg 3.023773 -0.000000 -0.000000
RightFoot -9.818219 0.584936 -12.746872
RightToeBase -1.039664 -0.000000 0.000000
3971
root -6.011228 32.691026 -4.002000 16.643186 -5.683191 -3.049971
Spine -22.182629 -3.858205 4.654761
Head 12.479691 11.609042 7.107605
LeftShoulder -8.329700 20.297206 10.184435
LeftArm 20.042928 23.736815 -76.712132
LeftForeArm -4.120917 -0.000000 19.429772
LeftHand -22.529902 -0.000000 -3.186371
LeftHandThumb1 -26.253704 0.000000 33.147579
RightShoulder -24.906146 10.453804 -13.987481
RightArm -41.145832 55.236770 51.961069
RightForeArm 58.539833 -0.000000 133.606787
RightHand 7.538085 -0.000000 -7.817102
RightHandThumb1 -24.326973 -0.000000 -32.862282
LeftUpLeg -9.693100 11.729839 3.775124
LeftLeg -0.089911 -0.000000 0.000000
LeftFoot -15.439908 10.340767 -19.027793
LeftToeBase 9.178760 -0.000000 -0.000000
RightUpLeg -13.221081 -1.622972 -1.648473
RightLeg 3.029657 -0.000000 -0.000000
RightFoot -9.818237 0.571406 -12.762267
RightToeBase -1.054515 -0.000000 0.000000
3972
root -6.012539 32.691641 -4.002388 16.626069 -5.675697 -3.050703
Spine -22.190724 -3.834959 4.660866
Head 12.423369 11.619785 7.121808
LeftShoulder -8.305556 20.259445 10.203147
LeftArm 20.058629 23.758492 -76.718551
LeftForeArm -4.134597 -0.000000 19.435075
LeftHand -22.557574 -0.000000 -3.098319
LeftHandThumb1 -26.253704 0.000000 33.147579
RightShoulder -24.903616 10.409163 -14.154312
RightArm -41.367177 55.511675 51.600209
RightForeArm 59.441991 -0.000000 134.871225
RightHand 8.954531 0.000000 -2.888557
RightHandThumb1 -24.326973 -0.000000 -32.862282
LeftUpLeg -9.681276 11.762677 3.777489
LeftLeg -0.084490 -0.000000 0.000000
LeftFoot -15.440755 10.279450 -19.103990
LeftToeBase 9.193344 -0.000000 -0.000000
RightUpLeg -13.205663 -1.615396 -1.645798
RightLeg 3.033228 -0.000000 -0.000000
RightFoot -9.812763 0.559906 -12.741399
RightToeBase -1.052238 -0.000000 0.000000
3973
root -6.013641 32.692374 -4.003348 16.605688 -5.658020 -3.041851
Spine -22.195125 -3.823218 4.654750
Head 12.388562 11.624078 7.136736
LeftShoulder -8.266861 20.220873 10.223575
LeftArm 20.052042 23.742854 -76.739071
LeftForeArm -4.111190 0.000000 19.456034
LeftHand -22.554245 -0.000000 -3.053169
LeftHandThumb1 -26.253704 0.000000 33.147579
RightShoulder -25.032814 10.212786 -14.311639
RightArm -41.000602 55.673538 51.781840
RightForeArm 59.904170 0.000000 136.176409
RightHand 10.336996 -0.000000 1.814545
RightHandThumb1 -24.326973 -0.000000 -32.862282
LeftUpLeg -9.669393 11.758213 3.774177
LeftLeg -0.081065 -0.000000 0.000000
LeftFoot -15.438967 10.296119 -18.931587
LeftToeBase 9.351057 -0.000000 -0.000000
RightUpLeg -13.185188 -1.633041 -1.648939
RightLeg 3.033550 -0.000000 -0.000000
RightFoot -9.820603 0.556379 -12.753607
RightToeBase -1.028294 -0.000000 0.000000
